<?xml version="1.0" encoding="UTF-8"?>
<svg xmlns="http://www.w3.org/2000/svg" xmlns:xlink="http://www.w3.org/1999/xlink" version="1.1" id="Layer_1" x="0px" y="0px" width="326.166px" height="264.333px" viewBox="0 0 326.166 264.333" xml:space="preserve">
<g id="Group_118" transform="translate(1241 4797)">
	<g>
		<defs>
			<path id="SVGID_1_" d="M132.635,244.565c-0.186-0.004-0.338,0.143-0.342,0.328c0,0.004,0,0.01,0,0.014v5.822h-7.535v-5.822     c0-0.342,0-0.342-0.342-0.342h-1.37c-0.186-0.004-0.339,0.143-0.343,0.328c0,0.004,0,0.01,0,0.014v13.699     c-0.004,0.186,0.144,0.34,0.328,0.342c0.004,0.002,0.01,0.002,0.015,0h1.37c0.185,0.006,0.338-0.143,0.342-0.326     c0-0.006,0-0.01,0-0.016v-5.822h7.535v5.822c0,0.342,0,0.342,0.342,0.342h1.37c0.185,0.006,0.338-0.143,0.342-0.326     c0-0.006,0-0.01,0-0.016v-13.699c0.004-0.186-0.144-0.338-0.328-0.342c-0.005,0-0.009,0-0.014,0H132.635z M161.748,244.565     c-0.185-0.004-0.338,0.143-0.342,0.328c0,0.004,0,0.01,0,0.014v1.027c0,0.342,0,0.342,0.342,0.342h3.426v11.988     c-0.004,0.186,0.143,0.34,0.328,0.342c0.005,0.002,0.009,0.002,0.014,0h1.366c0.186,0.004,0.338-0.143,0.342-0.326     c0-0.006,0-0.01,0-0.016v-11.986h3.425c0.186,0.004,0.339-0.145,0.343-0.328c0-0.004,0-0.01,0-0.016v-1.027     c0-0.342,0-0.342-0.343-0.342H161.748z M179.901,244.565c-0.185-0.004-0.338,0.143-0.343,0.326c0,0.006,0,0.01,0,0.016v13.699     c0,0.342,0,0.342,0.343,0.342h8.221c0.186,0.006,0.338-0.143,0.343-0.326c0-0.006,0-0.01,0-0.016v-1.025     c0-0.344,0-0.344-0.343-0.344h-6.508v-4.451h5.479c0.342,0,0.342,0,0.342-0.344v-1.027c0.004-0.186-0.144-0.338-0.327-0.342     c-0.005,0-0.01,0-0.015,0h-5.479v-4.801h6.508c0.186,0.004,0.338-0.143,0.343-0.326c0-0.006,0-0.012,0-0.016v-1.027     c0-0.342,0-0.342-0.343-0.342L179.901,244.565z M198.054,244.565c-0.186-0.004-0.338,0.143-0.342,0.328c0,0.004,0,0.01,0,0.014     v13.699c0,0.342,0,0.342,0.342,0.342h7.192c0.186,0.006,0.338-0.141,0.344-0.326c0-0.004,0-0.01,0-0.016v-1.025     c0-0.344,0-0.344-0.344-0.344h-5.479V245.25c0.004-0.186-0.144-0.338-0.327-0.344c-0.005,0.002-0.01,0.002-0.015,0h-1.37     L198.054,244.565z M143.596,251.758c0-2.74,2.399-5.48,5.138-5.48c2.988-0.039,5.441,2.352,5.48,5.34c0,0.047,0,0.094,0,0.141     c0,3.084-2.4,5.139-5.48,5.139C145.925,256.827,143.664,254.567,143.596,251.758 M141.541,251.758     c0.023,3.963,3.23,7.17,7.193,7.193c4.038,0.121,7.41-3.053,7.533-7.09c0.001-0.035,0.001-0.068,0.002-0.104     c0.095-4.066-3.125-7.441-7.192-7.535c-4.066-0.096-7.44,3.125-7.536,7.191C141.539,251.528,141.539,251.645,141.541,251.758      M121.676,201.067c-0.367,0.023-0.66,0.316-0.686,0.686V227.1c0.025,0.367,0.318,0.66,0.686,0.686h14.043     c0.368-0.023,0.66-0.318,0.685-0.686v-3.082c-0.024-0.367-0.316-0.66-0.685-0.686h-9.938v-21.58     c-0.024-0.367-0.316-0.66-0.685-0.686H121.676z M146.676,201.067c-0.367,0.023-0.66,0.316-0.686,0.686V227.1     c0.025,0.367,0.318,0.66,0.686,0.686h15.755c0.368-0.023,0.66-0.318,0.685-0.686v-3.082c-0.024-0.367-0.316-0.66-0.685-0.686     h-11.3v-6.852h9.59c0.368-0.023,0.66-0.316,0.685-0.686v-3.084c-0.024-0.365-0.316-0.658-0.685-0.684h-9.59v-6.166h11.3     c0.368-0.025,0.66-0.316,0.685-0.684v-3.426c-0.024-0.367-0.316-0.66-0.685-0.686H146.676z M190.176,201.067     c-0.26,0.037-0.5,0.156-0.686,0.344l-9.934,10.959v-10.273c-0.032-0.555-0.475-0.996-1.027-1.029h-3.426     c-0.496-0.07-0.956,0.273-1.027,0.77c-0.013,0.086-0.013,0.174,0,0.26v25c0.032,0.555,0.475,0.994,1.027,1.027h3.426     c0.553-0.033,0.993-0.471,1.027-1.021v-11.648l9.934,12.33c0.186,0.188,0.426,0.307,0.686,0.344h4.109     c0.686,0,1.027-0.686,0.686-1.371l-10.618-13.014l9.934-11.301c0.343-0.688,0-1.369-0.686-1.369L190.176,201.067z      M317.93,201.067c-0.26,0.037-0.5,0.156-0.685,0.344l-9.59,10.959v-10.273c-0.032-0.555-0.475-0.996-1.028-1.029h-3.425     c-0.497-0.07-0.957,0.273-1.028,0.77c-0.013,0.086-0.013,0.174,0,0.26v25c0.033,0.555,0.475,0.994,1.028,1.027h3.425     c0.553-0.033,0.991-0.473,1.026-1.021v-11.648l9.935,12.33c0.184,0.188,0.424,0.307,0.684,0.344h4.111     c0.684,0,1.026-0.686,0.684-1.371l-10.617-13.014l9.935-11.301c0.342-0.688,0-1.369-0.687-1.369L317.93,201.067z M93.59,201.067     c-0.367,0.023-0.66,0.316-0.686,0.686v3.082c0.025,0.367,0.318,0.658,0.686,0.686h5.822v21.58     c0.025,0.367,0.317,0.66,0.686,0.686h3.425c0.367-0.023,0.66-0.318,0.685-0.686v-21.58h5.823c0.368-0.025,0.66-0.316,0.686-0.686     v-3.082c-0.025-0.367-0.317-0.66-0.686-0.686H93.59z M48.037,210.315L48.037,210.315l4.11,8.561H44.27L48.037,210.315z      M48.037,200.725c-0.26,0.037-0.5,0.156-0.685,0.342L35.364,227.1c-0.343,0.344,0,1.027,0.686,1.027h3.425     c0.685,0,1.028-0.342,1.028-0.686l2.055-4.109h11.646l1.714,4.109c0.343,0.686,0.685,0.686,1.027,0.686h3.425     c0.686,0,1.028-0.342,0.686-1.027l-11.989-26.029c0-0.344-0.343-0.344-0.685-0.344L48.037,200.725z M4.881,214.424     c0.062,7.631,6.301,13.766,13.932,13.701c0.037,0,0.074,0,0.111,0c3.485,0.158,6.865-1.219,9.248-3.77     c0.283-0.213,0.341-0.615,0.128-0.898c-0.036-0.049-0.079-0.092-0.128-0.127l-2.4-2.4c-0.212-0.283-0.615-0.342-0.898-0.129     c-0.05,0.035-0.094,0.08-0.13,0.129c-1.622,1.379-3.694,2.109-5.822,2.055c-4.918-0.195-8.747-4.34-8.553-9.258     c0.185-4.645,3.907-8.367,8.553-8.553c2.198-0.092,4.327,0.785,5.822,2.4c0.212,0.283,0.614,0.342,0.898,0.129     c0.049-0.037,0.093-0.08,0.129-0.129l2.4-2.4c0.283-0.213,0.341-0.613,0.128-0.898c-0.036-0.047-0.079-0.092-0.128-0.127     c-2.51-2.318-5.834-3.551-9.248-3.426C11.389,200.725,4.881,206.891,4.881,214.424 M67.902,207.917     c0,4.453,3.769,6.852,7.193,8.221c3.083,1.369,4.8,2.74,4.8,4.453c-0.038,1.746-1.485,3.131-3.23,3.094     c-0.065-0.002-0.13-0.006-0.194-0.012c-2.4,0-5.48-2.398-5.823-2.398c-0.345-0.316-0.881-0.293-1.197,0.053     c-0.076,0.084-0.135,0.182-0.173,0.289l-1.37,2.4c-0.343,0.684,0,0.684,0.344,1.025c2.38,2.043,5.427,3.141,8.562,3.084     c5.48,0,8.905-3.77,8.905-7.535c0-5.139-4.453-7.193-7.878-8.562c-3.083-1.371-4.453-2.4-4.453-4.453     c0-1.371,1.027-2.74,3.425-2.74c2.055,0,5.138,2.057,5.479,2.057c0.344,0.342,1.028,0,1.37-0.346l1.37-2.055     c0.344-0.342,0-1.027-0.342-1.369c-2.131-1.736-4.787-2.701-7.535-2.74c-6.85,0.344-9.248,4.109-9.248,7.535 M204.567,200.723     c-0.368,0.025-0.66,0.316-0.686,0.686v26.029c0.024,0.367,0.316,0.66,0.686,0.686h3.414c0.368-0.023,0.66-0.316,0.686-0.686V211     l0,0l16.101,17.811h1.028c0.366-0.025,0.66-0.318,0.685-0.686v-26.373c-0.024-0.367-0.317-0.66-0.685-0.686h-3.424     c-0.366,0.023-0.659,0.316-0.686,0.686v15.754l0,0l-16.1-17.125h-1.025L204.567,200.723z M240.53,214.422     c0-4.918,3.986-8.904,8.904-8.904s8.905,3.986,8.905,8.904s-3.987,8.906-8.905,8.906l0,0     C244.553,223.241,240.616,219.305,240.53,214.422 M235.729,214.422c-0.004,7.566,6.126,13.705,13.691,13.709     c7.565,0.006,13.703-6.125,13.709-13.691c0-0.006,0-0.012,0-0.018c0-7.533-6.165-14.043-13.7-14.043     C241.805,200.561,235.72,206.797,235.729,214.422 M270.323,214.422c0.063,7.631,6.301,13.766,13.933,13.701     c0.036,0,0.073,0,0.11,0c3.485,0.158,6.865-1.219,9.248-3.77c0.283-0.213,0.341-0.615,0.128-0.898     c-0.037-0.049-0.08-0.092-0.128-0.127l-2.399-2.4c-0.214-0.283-0.615-0.342-0.898-0.129c-0.05,0.035-0.093,0.08-0.13,0.129     c-1.621,1.379-3.695,2.109-5.822,2.055c-4.919-0.195-8.747-4.34-8.553-9.258c0.185-4.645,3.907-8.367,8.553-8.553     c2.198-0.092,4.327,0.785,5.822,2.4c0.213,0.283,0.615,0.342,0.898,0.129c0.05-0.037,0.093-0.08,0.13-0.129l2.399-2.4     c0.283-0.213,0.341-0.615,0.128-0.898c-0.037-0.049-0.08-0.092-0.128-0.127c-2.51-2.318-5.834-3.551-9.248-3.426     c-7.63-0.125-13.917,5.959-14.042,13.588c-0.001,0.039-0.001,0.074-0.001,0.111 M190.522,139.754     c0.568-3.373,1.729-6.619,3.426-9.59c6.851,0,14.043,2.4,17.811,7.879c5.138,7.191,4.453,18.152-4.453,22.264     c-1.582,0.852-3.342,1.32-5.139,1.369c-9.248,0-13.016-13.357-11.646-21.92 M233.334,133.249c-2.74,0-6.509-4.111-8.221-5.824     c-2.195-1.799-4.151-3.871-5.822-6.164c3.768,1.369,7.877,3.082,10.959,5.48C231.964,128.11,238.129,133.249,233.334,133.249     L233.334,133.249 M238.134,74.68c1.657,6.949,2.121,14.131,1.37,21.234h-8.563c-5.479,0-11.3,0-16.1,2.055     c-9.248,3.77-4.453,14.043-0.343,20.209c-7.878-1.027-15.755,1.027-21.234,8.562c-0.342,0.342-0.686,1.027-1.026,1.369     c-2.554,0.371-5.073,0.943-7.535,1.713c-6.851,2.4-10.618,8.562-12.329,15.414c-2.057,8.904-1.028,18.838-1.028,28.084     c0,1.371,2.399,2.74,2.399,1.371c0-11.646-2.739-29.455,6.508-38.699c2.834-2.703,6.414-4.492,10.275-5.139     c-4.453,9.248-4.453,21.92,3.082,29.799c7.193,7.193,19.865,3.77,22.948-6.164c2.74-9.248-3.083-19.523-11.3-23.977     c-3.053-1.635-6.473-2.461-9.934-2.398c4.791-6.086,12.648-8.883,20.208-7.193c2.72,3.631,5.819,6.961,9.248,9.934     c2.399,2.055,6.164,5.479,9.247,5.479c2.4,0,3.426-1.713,2.74-3.768c-1.027-4.111-6.165-7.193-9.59-9.248     c-3.434-1.979-7.12-3.477-10.96-4.453c-0.343-0.342-0.343-0.686-0.686-1.027c-2.399-3.426-5.139-7.879-4.8-11.988     c0.686-5.139,5.822-5.822,10.274-6.508c5.805-0.57,11.637-0.799,17.468-0.686c-0.729,6.986-2.578,13.811-5.479,20.207     c0,0,2.399,0,2.74-0.686c2.7-6.229,4.544-12.797,5.479-19.521c2.399,0,5.138,0.342,7.535,0.342c1.713,0,0-2.4-1.027-2.4     c-2.055,0-4.109-0.342-6.165-0.342c0.751-7.332,0.288-14.736-1.37-21.92h-0.343C239.847,73.653,237.791,74.336,238.134,74.68      M141.881,72.627c-9.077,1.131-15.519,9.406-14.388,18.482c0,0.006,0.001,0.012,0.002,0.018     c1.37,15.754,22.264,23.633,31.854,9.59c0.342-0.342-2.056-2.4-2.4-2.055c-8.562,12.33-28.77,8.562-27.399-8.562     c1.027-12.674,18.5-21.922,27.399-9.592c0.343,0.344,2.74,2.4,1.713,1.371c-3.768-5.139-8.904-9.25-15.413-9.25h-1.367      M81.601,72.975c0.942-2.42,2.783-4.385,5.138-5.48c-2.111,2.697-3.523,5.875-4.109,9.248c-0.62,2.58-0.736,5.254-0.344,7.879     C80.572,80.854,79.885,77.084,81.601,72.975 M85.709,89.077c-0.404-0.773-0.748-1.576-1.027-2.4     c-1.713-6.508-0.343-19.523,7.878-21.234c13.7-1.713,33.565,10.617,28.428,24.66c-2.739,5.137-8.22,7.533-14.385,7.533     c-7.193-0.342-15.755-3.768-20.894-8.562 M93.93,63.385h-0.686c-5.822,0-11.3,1.713-14.043,7.535     c-2.399,5.479-0.342,10.617,3.426,15.07c0.86,3.738,2.901,7.102,5.822,9.59c6.165,6.164,14.729,8.904,23.29,10.275     c3.425,0.342,6.509,0.684,9.934,1.027c0.685,0,1.37,0.342,2.055,0.342c-4.11,0.686-8.22,2.4-11.646,3.426     c-5.822,2.055-11.987,4.799-16.1,9.59c-9.933,10.273-1.37,25.344,11.646,27.057c11.3,1.715,23.633-3.082,33.564-8.904     c-8.22,8.221-20.893,11.988-31.853,13.016c-1.028,0-2.056,2.055-0.344,1.713c13.358-1.371,28.771-6.508,36.99-17.811     c0.686-1.027-0.343-1.369-1.37-1.027c-13.357,9.248-40.415,20.893-49.663,2.4c-8.562-17.469,18.838-25.346,31.168-27.4     c0.686,0,1.028-0.686,1.37-1.029c0.686-2.055-3.425-2.055-4.452-2.398c-6.509-0.686-13.016-1.029-19.181-3.084     S90.507,96.6,87.08,90.782c1.629,1.367,3.346,2.625,5.139,3.768c8.904,5.48,25.345,8.904,31.51-2.4     c3.768-9.59-4.8-18.5-12.33-23.289c-4.924-2.875-10.421-4.629-16.1-5.139c-0.686,0-1.028-0.344-1.37-0.344l0,0 M162.772,63.036     v58.568c-2.066,4.186-4.472,8.193-7.193,11.986c-0.342-1.025-0.342-2.055-0.685-3.082c-2.74-9.248-8.905-16.783-18.838-17.469     c-8.562-0.684-19.865,3.426-18.153,14.043c1.37,9.934,11.988,11.988,19.523,7.535c1.37-0.684-0.686-1.713-1.713-1.027     c-13.016,7.535-22.264-11.299-9.59-17.125c13.357-6.164,23.975,4.801,26.715,16.785c0.342,1.027,0.342,2.055,0.685,3.082     c-3.153,3.9-6.587,7.562-10.274,10.961c-6.509,5.822-15.756,11.645-25,12.33c-1.37,0-0.344,2.398,0.685,2.398     c6.165-0.342,11.988-3.082,17.125-6.164c6.868-4.236,12.904-9.693,17.81-16.102c1.37,10.961,0.342,22.605,0.342,33.564     c0,1.027,2.4,1.027,2.4,0c0-11.645,1.37-24.318-0.685-36.305c2.399-3.426,4.453-6.85,6.508-10.275v46.924     c0,0.686,3.083,1.027,3.083,0.342v-52.74c0.647-1.221,1.221-2.479,1.713-3.77c1.37-3.424,2.74-6.85,3.77-10.275     c1.369,6.51,5.479,12.674,11.645,14.729c9.59,2.74,19.523-4.799,21.234-14.043c1.028-6.508-2.055-13.014-8.904-14.729     c-8.562-2.398-13.357,4.801-13.016,12.674c0,1.027,1.714,2.74,1.714,1.369c-0.344-17.125,22.947-13.357,17.81,2.057     c-2.055,5.479-8.22,10.273-15.069,10.617c-8.562,0-14.043-8.562-14.043-16.439c3.361-11.33,5.88-22.893,7.535-34.594     c0-1.027-2.056-2.74-2.399-1.027c-2.4,15.754-5.823,32.537-12.33,47.951v-52.4c0-0.344-1.027-0.686-1.713-0.686     c-0.261,0.037-0.5,0.156-0.686,0.342 M232.988,51.741c1.369,2.74,3.083,6.852,1.369,6.852l0,0     C233.329,58.592,232.988,55.167,232.988,51.741 M194.971,40.774c0.686-0.686,4.109-4.453,4.8-3.082     c1.028,1.713-4.109,6.164-5.138,6.85c-1.169,1.234-2.43,2.379-3.769,3.424c1.107-2.539,2.485-4.949,4.109-7.191 M164.834,29.475     c0.574-2.631,1.746-5.092,3.426-7.193c0.343-0.686,1.027-1.029,1.37-1.713c-0.364,1.885-0.938,3.723-1.714,5.479     c-0.599,1.271-1.409,2.43-2.399,3.426c-0.177,0.373-0.407,0.721-0.685,1.027v-1.027 M149.074,4.127     c-8.562,1.713-16.439,6.164-23.633,11.299c-15.413,10.961-26.715,25.346-32.88,43.156c0,0,2.055,0.342,2.4-0.344     c4.545-13.496,12.579-25.549,23.29-34.936c6.164-5.479,14.043-11.645,22.263-15.412c-8.905,4.453-15.755,12.674-20.894,20.893     c-5.138,8.221-10.617,19.865-8.22,29.801c2.056,8.219,9.933,11.299,17.811,11.299c12.673,0,22.263-8.219,30.482-16.781     l7.187-7.189c-0.99,1.516-1.357,3.357-1.028,5.137c0.687,4.801,6.165,6.51,10.275,6.166c3.659-0.25,7.195-1.428,10.274-3.426     c-0.686,4.111,0,7.193,3.769,7.535c4.8,0.342,9.247-2.4,13.699-3.424c6.509-1.371,10.618,1.713,13.357,6.508     c-1.656-1.145-3.517-1.959-5.479-2.4c-6.95-1.723-14.205,1.348-17.811,7.535c-8.904,15.412,10.275,28.77,23.976,23.633     c8.909-3.078,13.361-12.672,13.02-21.576c-0.342-8.221-4.8-15.414-10.618-21.236c-2.801-2.914-5.773-5.66-8.904-8.219     c-2.056-1.715-5.479-4.453-6.165-7.193c-0.686-3.084,2.399-5.139,5.139-5.139c4.453,0,9.248,4.801,11.987,7.879     c2.914,3.07,5.552,6.395,7.879,9.932V49c0,3.082-0.687,7.193,1.027,9.934c1.713,2.738,5.822,2.738,5.822-1.029     c0.344-3.424-2.055-7.535-4.8-11.299v-2.74c-1.028-5.824-3.083-11.301-7.193-15.756c-0.685-0.686-3.083-0.686-1.713,0.686     c3.485,3.914,5.644,8.828,6.165,14.043c-0.686-0.686-1.027-1.371-1.713-2.055c-4.109-5.139-9.59-10.961-15.755-13.016     c-3.425-1.027-9.591-0.344-9.934,4.453c-0.344,4.797,6.509,8.904,9.248,11.645c6.509,5.824,13.699,12.33,16.101,21.578     c2.739,10.619-2.4,23.633-13.7,26.373c-12.33,2.74-25-9.248-17.811-21.578c2.615-4.176,7.069-6.852,11.984-7.201     c5.479-0.342,9.248,2.74,11.646,7.193c0.62,2.133,1.078,4.309,1.37,6.508c0.186,0.188,0.426,0.307,0.686,0.344     c0.686,0.686,2.056,0.686,2.056,0v-0.344c0.342,0,0.342,0,0.342-0.342c-1.369-8.562-4.453-18.838-14.729-19.523     c-2.739-0.342-5.479,0.344-8.22,1.029c-2.4,0.684-7.193,3.424-9.591,2.74c-3.082-0.686-2.055-6.166-1.027-9.248     c0.686-0.686,1.37-1.029,2.055-1.715c2.4-2.055,4.801-4.109,7.193-6.508c0.686-1.027,3.425-3.082,3.425-4.453     c0-2.398-4.109-1.713-5.822-1.027c-3.426,1.371-8.562,8.221-10.274,14.385c-1.405,1.037-2.896,1.953-4.453,2.74     c-3.769,2.055-8.562,2.74-11.646-0.342c-1.632-1.605-2.169-4.02-1.37-6.164c2.74-10.275,16.783-14.043,25.688-12.674     c0.342,0,0.686,0.344,1.026,0.344c1.027,0.342,3.769-0.344,1.714-1.029c-16.44-6.508-28.085,4.453-39.046,15.756     c-6.508,6.85-13.699,14.385-23.289,17.125c-9.248,2.74-19.523,0-21.235-10.275c-2.4-16.783,11.988-36.648,24.66-45.9     c7.192-5.479,21.578-11.299,28.428-2.74c1.764,2.379,2.724,5.26,2.74,8.221c-4.453,3.426-10.275,8.904-8.563,13.016     c1.713,4.799,8.221-0.686,9.59-3.084c1.517-2.975,2.336-6.252,2.399-9.59c8.905-6.164,20.551-5.139,30.825,0     c0.686,0.344,4.109,0,2.4-0.686c-10.276-5.131-22.263-7.529-32.877-2.049c-0.342,0-0.342,0.344-0.686,0.344     c-0.322-2.979-1.651-5.758-3.768-7.879c-2.056-2.055-4.801-3.082-7.879-3.768h-0.685c-1.351-0.283-2.732-0.398-4.112-0.342     C154.291,3.083,151.642,3.428,149.074,4.127"></path>
		</defs>
		<clipPath id="SVGID_2_">
			<use xlink:href="#SVGID_1_" overflow="visible"></use>
		</clipPath>
		<rect x="-5.119" y="-11.9" clip-path="url(#SVGID_2_)" fill="#FDD83B" width="350" height="289"></rect>
	</g>
	<g>
		<defs>
			<path id="SVGID_3_" d="M132.635,244.565c-0.186-0.004-0.338,0.143-0.342,0.328c0,0.004,0,0.01,0,0.014v5.822h-7.535v-5.822     c0-0.342,0-0.342-0.342-0.342h-1.37c-0.186-0.004-0.339,0.143-0.343,0.328c0,0.004,0,0.01,0,0.014v13.699     c-0.004,0.186,0.144,0.34,0.328,0.342c0.004,0.002,0.01,0.002,0.015,0h1.37c0.185,0.006,0.338-0.143,0.342-0.326     c0-0.006,0-0.01,0-0.016v-5.822h7.535v5.822c0,0.342,0,0.342,0.342,0.342h1.37c0.185,0.006,0.338-0.143,0.342-0.326     c0-0.006,0-0.01,0-0.016v-13.699c0.004-0.186-0.144-0.338-0.328-0.342c-0.005,0-0.009,0-0.014,0H132.635z M161.748,244.565     c-0.185-0.004-0.338,0.143-0.342,0.328c0,0.004,0,0.01,0,0.014v1.027c0,0.342,0,0.342,0.342,0.342h3.426v11.988     c-0.004,0.186,0.143,0.34,0.328,0.342c0.005,0.002,0.009,0.002,0.014,0h1.366c0.186,0.004,0.338-0.143,0.342-0.326     c0-0.006,0-0.01,0-0.016v-11.986h3.425c0.186,0.004,0.339-0.145,0.343-0.328c0-0.004,0-0.01,0-0.016v-1.027     c0-0.342,0-0.342-0.343-0.342H161.748z M179.901,244.565c-0.185-0.004-0.338,0.143-0.343,0.326c0,0.006,0,0.01,0,0.016v13.699     c0,0.342,0,0.342,0.343,0.342h8.221c0.186,0.006,0.338-0.143,0.343-0.326c0-0.006,0-0.01,0-0.016v-1.025     c0-0.344,0-0.344-0.343-0.344h-6.508v-4.451h5.479c0.342,0,0.342,0,0.342-0.344v-1.027c0.004-0.186-0.144-0.338-0.327-0.342     c-0.005,0-0.01,0-0.015,0h-5.479v-4.801h6.508c0.186,0.004,0.338-0.143,0.343-0.326c0-0.006,0-0.012,0-0.016v-1.027     c0-0.342,0-0.342-0.343-0.342L179.901,244.565z M198.054,244.565c-0.186-0.004-0.338,0.143-0.342,0.328c0,0.004,0,0.01,0,0.014     v13.699c0,0.342,0,0.342,0.342,0.342h7.192c0.186,0.006,0.338-0.141,0.344-0.326c0-0.004,0-0.01,0-0.016v-1.025     c0-0.344,0-0.344-0.344-0.344h-5.479V245.25c0.004-0.186-0.144-0.338-0.327-0.344c-0.005,0.002-0.01,0.002-0.015,0h-1.37     L198.054,244.565z M143.596,251.758c0-2.74,2.399-5.48,5.138-5.48c2.988-0.039,5.441,2.352,5.48,5.34c0,0.047,0,0.094,0,0.141     c0,3.084-2.4,5.139-5.48,5.139C145.925,256.827,143.664,254.567,143.596,251.758 M141.541,251.758     c0.023,3.963,3.23,7.17,7.193,7.193c4.038,0.121,7.41-3.053,7.533-7.09c0.001-0.035,0.001-0.068,0.002-0.104     c0.095-4.066-3.125-7.441-7.192-7.535c-4.066-0.096-7.44,3.125-7.536,7.191C141.539,251.528,141.539,251.645,141.541,251.758      M121.676,201.067c-0.367,0.023-0.66,0.316-0.686,0.686V227.1c0.025,0.367,0.318,0.66,0.686,0.686h14.043     c0.368-0.023,0.66-0.318,0.685-0.686v-3.082c-0.024-0.367-0.316-0.66-0.685-0.686h-9.938v-21.58     c-0.024-0.367-0.316-0.66-0.685-0.686H121.676z M146.676,201.067c-0.367,0.023-0.66,0.316-0.686,0.686V227.1     c0.025,0.367,0.318,0.66,0.686,0.686h15.755c0.368-0.023,0.66-0.318,0.685-0.686v-3.082c-0.024-0.367-0.316-0.66-0.685-0.686     h-11.3v-6.852h9.59c0.368-0.023,0.66-0.316,0.685-0.686v-3.084c-0.024-0.365-0.316-0.658-0.685-0.684h-9.59v-6.166h11.3     c0.368-0.025,0.66-0.316,0.685-0.684v-3.426c-0.024-0.367-0.316-0.66-0.685-0.686H146.676z M190.176,201.067     c-0.26,0.037-0.5,0.156-0.686,0.344l-9.934,10.959v-10.273c-0.032-0.555-0.475-0.996-1.027-1.029h-3.426     c-0.496-0.07-0.956,0.273-1.027,0.77c-0.013,0.086-0.013,0.174,0,0.26v25c0.032,0.555,0.475,0.994,1.027,1.027h3.426     c0.553-0.033,0.993-0.471,1.027-1.021v-11.648l9.934,12.33c0.186,0.188,0.426,0.307,0.686,0.344h4.109     c0.686,0,1.027-0.686,0.686-1.371l-10.618-13.014l9.934-11.301c0.343-0.688,0-1.369-0.686-1.369L190.176,201.067z      M317.93,201.067c-0.26,0.037-0.5,0.156-0.685,0.344l-9.59,10.959v-10.273c-0.032-0.555-0.475-0.996-1.028-1.029h-3.425     c-0.497-0.07-0.957,0.273-1.028,0.77c-0.013,0.086-0.013,0.174,0,0.26v25c0.033,0.555,0.475,0.994,1.028,1.027h3.425     c0.553-0.033,0.991-0.473,1.026-1.021v-11.648l9.935,12.33c0.184,0.188,0.424,0.307,0.684,0.344h4.111     c0.684,0,1.026-0.686,0.684-1.371l-10.617-13.014l9.935-11.301c0.342-0.688,0-1.369-0.687-1.369L317.93,201.067z M93.59,201.067     c-0.367,0.023-0.66,0.316-0.686,0.686v3.082c0.025,0.367,0.318,0.658,0.686,0.686h5.822v21.58     c0.025,0.367,0.317,0.66,0.686,0.686h3.425c0.367-0.023,0.66-0.318,0.685-0.686v-21.58h5.823c0.368-0.025,0.66-0.316,0.686-0.686     v-3.082c-0.025-0.367-0.317-0.66-0.686-0.686H93.59z M48.037,210.315L48.037,210.315l4.11,8.561H44.27L48.037,210.315z      M48.037,200.725c-0.26,0.037-0.5,0.156-0.685,0.342L35.364,227.1c-0.343,0.344,0,1.027,0.686,1.027h3.425     c0.685,0,1.028-0.342,1.028-0.686l2.055-4.109h11.646l1.714,4.109c0.343,0.686,0.685,0.686,1.027,0.686h3.425     c0.686,0,1.028-0.342,0.686-1.027l-11.989-26.029c0-0.344-0.343-0.344-0.685-0.344L48.037,200.725z M4.881,214.424     c0.062,7.631,6.301,13.766,13.932,13.701c0.037,0,0.074,0,0.111,0c3.485,0.158,6.865-1.219,9.248-3.77     c0.283-0.213,0.341-0.615,0.128-0.898c-0.036-0.049-0.079-0.092-0.128-0.127l-2.4-2.4c-0.212-0.283-0.615-0.342-0.898-0.129     c-0.05,0.035-0.094,0.08-0.13,0.129c-1.622,1.379-3.694,2.109-5.822,2.055c-4.918-0.195-8.747-4.34-8.553-9.258     c0.185-4.645,3.907-8.367,8.553-8.553c2.198-0.092,4.327,0.785,5.822,2.4c0.212,0.283,0.614,0.342,0.898,0.129     c0.049-0.037,0.093-0.08,0.129-0.129l2.4-2.4c0.283-0.213,0.341-0.613,0.128-0.898c-0.036-0.047-0.079-0.092-0.128-0.127     c-2.51-2.318-5.834-3.551-9.248-3.426C11.389,200.725,4.881,206.891,4.881,214.424 M67.902,207.917     c0,4.453,3.769,6.852,7.193,8.221c3.083,1.369,4.8,2.74,4.8,4.453c-0.038,1.746-1.485,3.131-3.23,3.094     c-0.065-0.002-0.13-0.006-0.194-0.012c-2.4,0-5.48-2.398-5.823-2.398c-0.345-0.316-0.881-0.293-1.197,0.053     c-0.076,0.084-0.135,0.182-0.173,0.289l-1.37,2.4c-0.343,0.684,0,0.684,0.344,1.025c2.38,2.043,5.427,3.141,8.562,3.084     c5.48,0,8.905-3.77,8.905-7.535c0-5.139-4.453-7.193-7.878-8.562c-3.083-1.371-4.453-2.4-4.453-4.453     c0-1.371,1.027-2.74,3.425-2.74c2.055,0,5.138,2.057,5.479,2.057c0.344,0.342,1.028,0,1.37-0.346l1.37-2.055     c0.344-0.342,0-1.027-0.342-1.369c-2.131-1.736-4.787-2.701-7.535-2.74c-6.85,0.344-9.248,4.109-9.248,7.535 M204.567,200.723     c-0.368,0.025-0.66,0.316-0.686,0.686v26.029c0.024,0.367,0.316,0.66,0.686,0.686h3.414c0.368-0.023,0.66-0.316,0.686-0.686V211     l0,0l16.101,17.811h1.028c0.366-0.025,0.66-0.318,0.685-0.686v-26.373c-0.024-0.367-0.317-0.66-0.685-0.686h-3.424     c-0.366,0.023-0.659,0.316-0.686,0.686v15.754l0,0l-16.1-17.125h-1.025L204.567,200.723z M240.53,214.422     c0-4.918,3.986-8.904,8.904-8.904s8.905,3.986,8.905,8.904s-3.987,8.906-8.905,8.906l0,0     C244.553,223.241,240.616,219.305,240.53,214.422 M235.729,214.422c-0.004,7.566,6.126,13.705,13.691,13.709     c7.565,0.006,13.703-6.125,13.709-13.691c0-0.006,0-0.012,0-0.018c0-7.533-6.165-14.043-13.7-14.043     C241.805,200.561,235.72,206.797,235.729,214.422 M270.323,214.422c0.063,7.631,6.301,13.766,13.933,13.701     c0.036,0,0.073,0,0.11,0c3.485,0.158,6.865-1.219,9.248-3.77c0.283-0.213,0.341-0.615,0.128-0.898     c-0.037-0.049-0.08-0.092-0.128-0.127l-2.399-2.4c-0.214-0.283-0.615-0.342-0.898-0.129c-0.05,0.035-0.093,0.08-0.13,0.129     c-1.621,1.379-3.695,2.109-5.822,2.055c-4.919-0.195-8.747-4.34-8.553-9.258c0.185-4.645,3.907-8.367,8.553-8.553     c2.198-0.092,4.327,0.785,5.822,2.4c0.213,0.283,0.615,0.342,0.898,0.129c0.05-0.037,0.093-0.08,0.13-0.129l2.399-2.4     c0.283-0.213,0.341-0.615,0.128-0.898c-0.037-0.049-0.08-0.092-0.128-0.127c-2.51-2.318-5.834-3.551-9.248-3.426     c-7.63-0.125-13.917,5.959-14.042,13.588c-0.001,0.039-0.001,0.074-0.001,0.111 M190.522,139.754     c0.568-3.373,1.729-6.619,3.426-9.59c6.851,0,14.043,2.4,17.811,7.879c5.138,7.191,4.453,18.152-4.453,22.264     c-1.582,0.852-3.342,1.32-5.139,1.369c-9.248,0-13.016-13.357-11.646-21.92 M233.334,133.249c-2.74,0-6.509-4.111-8.221-5.824     c-2.195-1.799-4.151-3.871-5.822-6.164c3.768,1.369,7.877,3.082,10.959,5.48C231.964,128.11,238.129,133.249,233.334,133.249     L233.334,133.249 M238.134,74.68c1.657,6.949,2.121,14.131,1.37,21.234h-8.563c-5.479,0-11.3,0-16.1,2.055     c-9.248,3.77-4.453,14.043-0.343,20.209c-7.878-1.027-15.755,1.027-21.234,8.562c-0.342,0.342-0.686,1.027-1.026,1.369     c-2.554,0.371-5.073,0.943-7.535,1.713c-6.851,2.4-10.618,8.562-12.329,15.414c-2.057,8.904-1.028,18.838-1.028,28.084     c0,1.371,2.399,2.74,2.399,1.371c0-11.646-2.739-29.455,6.508-38.699c2.834-2.703,6.414-4.492,10.275-5.139     c-4.453,9.248-4.453,21.92,3.082,29.799c7.193,7.193,19.865,3.77,22.948-6.164c2.74-9.248-3.083-19.523-11.3-23.977     c-3.053-1.635-6.473-2.461-9.934-2.398c4.791-6.086,12.648-8.883,20.208-7.193c2.72,3.631,5.819,6.961,9.248,9.934     c2.399,2.055,6.164,5.479,9.247,5.479c2.4,0,3.426-1.713,2.74-3.768c-1.027-4.111-6.165-7.193-9.59-9.248     c-3.434-1.979-7.12-3.477-10.96-4.453c-0.343-0.342-0.343-0.686-0.686-1.027c-2.399-3.426-5.139-7.879-4.8-11.988     c0.686-5.139,5.822-5.822,10.274-6.508c5.805-0.57,11.637-0.799,17.468-0.686c-0.729,6.986-2.578,13.811-5.479,20.207     c0,0,2.399,0,2.74-0.686c2.7-6.229,4.544-12.797,5.479-19.521c2.399,0,5.138,0.342,7.535,0.342c1.713,0,0-2.4-1.027-2.4     c-2.055,0-4.109-0.342-6.165-0.342c0.751-7.332,0.288-14.736-1.37-21.92h-0.343C239.847,73.653,237.791,74.336,238.134,74.68      M141.881,72.627c-9.077,1.131-15.519,9.406-14.388,18.482c0,0.006,0.001,0.012,0.002,0.018     c1.37,15.754,22.264,23.633,31.854,9.59c0.342-0.342-2.056-2.4-2.4-2.055c-8.562,12.33-28.77,8.562-27.399-8.562     c1.027-12.674,18.5-21.922,27.399-9.592c0.343,0.344,2.74,2.4,1.713,1.371c-3.768-5.139-8.904-9.25-15.413-9.25h-1.367      M81.601,72.975c0.942-2.42,2.783-4.385,5.138-5.48c-2.111,2.697-3.523,5.875-4.109,9.248c-0.62,2.58-0.736,5.254-0.344,7.879     C80.572,80.854,79.885,77.084,81.601,72.975 M85.709,89.077c-0.404-0.773-0.748-1.576-1.027-2.4     c-1.713-6.508-0.343-19.523,7.878-21.234c13.7-1.713,33.565,10.617,28.428,24.66c-2.739,5.137-8.22,7.533-14.385,7.533     c-7.193-0.342-15.755-3.768-20.894-8.562 M93.93,63.385h-0.686c-5.822,0-11.3,1.713-14.043,7.535     c-2.399,5.479-0.342,10.617,3.426,15.07c0.86,3.738,2.901,7.102,5.822,9.59c6.165,6.164,14.729,8.904,23.29,10.275     c3.425,0.342,6.509,0.684,9.934,1.027c0.685,0,1.37,0.342,2.055,0.342c-4.11,0.686-8.22,2.4-11.646,3.426     c-5.822,2.055-11.987,4.799-16.1,9.59c-9.933,10.273-1.37,25.344,11.646,27.057c11.3,1.715,23.633-3.082,33.564-8.904     c-8.22,8.221-20.893,11.988-31.853,13.016c-1.028,0-2.056,2.055-0.344,1.713c13.358-1.371,28.771-6.508,36.99-17.811     c0.686-1.027-0.343-1.369-1.37-1.027c-13.357,9.248-40.415,20.893-49.663,2.4c-8.562-17.469,18.838-25.346,31.168-27.4     c0.686,0,1.028-0.686,1.37-1.029c0.686-2.055-3.425-2.055-4.452-2.398c-6.509-0.686-13.016-1.029-19.181-3.084     S90.507,96.6,87.08,90.782c1.629,1.367,3.346,2.625,5.139,3.768c8.904,5.48,25.345,8.904,31.51-2.4     c3.768-9.59-4.8-18.5-12.33-23.289c-4.924-2.875-10.421-4.629-16.1-5.139c-0.686,0-1.028-0.344-1.37-0.344l0,0 M162.772,63.036     v58.568c-2.066,4.186-4.472,8.193-7.193,11.986c-0.342-1.025-0.342-2.055-0.685-3.082c-2.74-9.248-8.905-16.783-18.838-17.469     c-8.562-0.684-19.865,3.426-18.153,14.043c1.37,9.934,11.988,11.988,19.523,7.535c1.37-0.684-0.686-1.713-1.713-1.027     c-13.016,7.535-22.264-11.299-9.59-17.125c13.357-6.164,23.975,4.801,26.715,16.785c0.342,1.027,0.342,2.055,0.685,3.082     c-3.153,3.9-6.587,7.562-10.274,10.961c-6.509,5.822-15.756,11.645-25,12.33c-1.37,0-0.344,2.398,0.685,2.398     c6.165-0.342,11.988-3.082,17.125-6.164c6.868-4.236,12.904-9.693,17.81-16.102c1.37,10.961,0.342,22.605,0.342,33.564     c0,1.027,2.4,1.027,2.4,0c0-11.645,1.37-24.318-0.685-36.305c2.399-3.426,4.453-6.85,6.508-10.275v46.924     c0,0.686,3.083,1.027,3.083,0.342v-52.74c0.647-1.221,1.221-2.479,1.713-3.77c1.37-3.424,2.74-6.85,3.77-10.275     c1.369,6.51,5.479,12.674,11.645,14.729c9.59,2.74,19.523-4.799,21.234-14.043c1.028-6.508-2.055-13.014-8.904-14.729     c-8.562-2.398-13.357,4.801-13.016,12.674c0,1.027,1.714,2.74,1.714,1.369c-0.344-17.125,22.947-13.357,17.81,2.057     c-2.055,5.479-8.22,10.273-15.069,10.617c-8.562,0-14.043-8.562-14.043-16.439c3.361-11.33,5.88-22.893,7.535-34.594     c0-1.027-2.056-2.74-2.399-1.027c-2.4,15.754-5.823,32.537-12.33,47.951v-52.4c0-0.344-1.027-0.686-1.713-0.686     c-0.261,0.037-0.5,0.156-0.686,0.342 M232.988,51.741c1.369,2.74,3.083,6.852,1.369,6.852l0,0     C233.329,58.592,232.988,55.167,232.988,51.741 M194.971,40.774c0.686-0.686,4.109-4.453,4.8-3.082     c1.028,1.713-4.109,6.164-5.138,6.85c-1.169,1.234-2.43,2.379-3.769,3.424c1.107-2.539,2.485-4.949,4.109-7.191 M164.834,29.475     c0.574-2.631,1.746-5.092,3.426-7.193c0.343-0.686,1.027-1.029,1.37-1.713c-0.364,1.885-0.938,3.723-1.714,5.479     c-0.599,1.271-1.409,2.43-2.399,3.426c-0.177,0.373-0.407,0.721-0.685,1.027v-1.027 M149.074,4.127     c-8.562,1.713-16.439,6.164-23.633,11.299c-15.413,10.961-26.715,25.346-32.88,43.156c0,0,2.055,0.342,2.4-0.344     c4.545-13.496,12.579-25.549,23.29-34.936c6.164-5.479,14.043-11.645,22.263-15.412c-8.905,4.453-15.755,12.674-20.894,20.893     c-5.138,8.221-10.617,19.865-8.22,29.801c2.056,8.219,9.933,11.299,17.811,11.299c12.673,0,22.263-8.219,30.482-16.781     l7.187-7.189c-0.99,1.516-1.357,3.357-1.028,5.137c0.687,4.801,6.165,6.51,10.275,6.166c3.659-0.25,7.195-1.428,10.274-3.426     c-0.686,4.111,0,7.193,3.769,7.535c4.8,0.342,9.247-2.4,13.699-3.424c6.509-1.371,10.618,1.713,13.357,6.508     c-1.656-1.145-3.517-1.959-5.479-2.4c-6.95-1.723-14.205,1.348-17.811,7.535c-8.904,15.412,10.275,28.77,23.976,23.633     c8.909-3.078,13.361-12.672,13.02-21.576c-0.342-8.221-4.8-15.414-10.618-21.236c-2.801-2.914-5.773-5.66-8.904-8.219     c-2.056-1.715-5.479-4.453-6.165-7.193c-0.686-3.084,2.399-5.139,5.139-5.139c4.453,0,9.248,4.801,11.987,7.879     c2.914,3.07,5.552,6.395,7.879,9.932V49c0,3.082-0.687,7.193,1.027,9.934c1.713,2.738,5.822,2.738,5.822-1.029     c0.344-3.424-2.055-7.535-4.8-11.299v-2.74c-1.028-5.824-3.083-11.301-7.193-15.756c-0.685-0.686-3.083-0.686-1.713,0.686     c3.485,3.914,5.644,8.828,6.165,14.043c-0.686-0.686-1.027-1.371-1.713-2.055c-4.109-5.139-9.59-10.961-15.755-13.016     c-3.425-1.027-9.591-0.344-9.934,4.453c-0.344,4.797,6.509,8.904,9.248,11.645c6.509,5.824,13.699,12.33,16.101,21.578     c2.739,10.619-2.4,23.633-13.7,26.373c-12.33,2.74-25-9.248-17.811-21.578c2.615-4.176,7.069-6.852,11.984-7.201     c5.479-0.342,9.248,2.74,11.646,7.193c0.62,2.133,1.078,4.309,1.37,6.508c0.186,0.188,0.426,0.307,0.686,0.344     c0.686,0.686,2.056,0.686,2.056,0v-0.344c0.342,0,0.342,0,0.342-0.342c-1.369-8.562-4.453-18.838-14.729-19.523     c-2.739-0.342-5.479,0.344-8.22,1.029c-2.4,0.684-7.193,3.424-9.591,2.74c-3.082-0.686-2.055-6.166-1.027-9.248     c0.686-0.686,1.37-1.029,2.055-1.715c2.4-2.055,4.801-4.109,7.193-6.508c0.686-1.027,3.425-3.082,3.425-4.453     c0-2.398-4.109-1.713-5.822-1.027c-3.426,1.371-8.562,8.221-10.274,14.385c-1.405,1.037-2.896,1.953-4.453,2.74     c-3.769,2.055-8.562,2.74-11.646-0.342c-1.632-1.605-2.169-4.02-1.37-6.164c2.74-10.275,16.783-14.043,25.688-12.674     c0.342,0,0.686,0.344,1.026,0.344c1.027,0.342,3.769-0.344,1.714-1.029c-16.44-6.508-28.085,4.453-39.046,15.756     c-6.508,6.85-13.699,14.385-23.289,17.125c-9.248,2.74-19.523,0-21.235-10.275c-2.4-16.783,11.988-36.648,24.66-45.9     c7.192-5.479,21.578-11.299,28.428-2.74c1.764,2.379,2.724,5.26,2.74,8.221c-4.453,3.426-10.275,8.904-8.563,13.016     c1.713,4.799,8.221-0.686,9.59-3.084c1.517-2.975,2.336-6.252,2.399-9.59c8.905-6.164,20.551-5.139,30.825,0     c0.686,0.344,4.109,0,2.4-0.686c-10.276-5.131-22.263-7.529-32.877-2.049c-0.342,0-0.342,0.344-0.686,0.344     c-0.322-2.979-1.651-5.758-3.768-7.879c-2.056-2.055-4.801-3.082-7.879-3.768h-0.685c-1.351-0.283-2.732-0.398-4.112-0.342     C154.291,3.083,151.642,3.428,149.074,4.127"></path>
		</defs>
		<clipPath id="SVGID_4_">
			<use xlink:href="#SVGID_3_" overflow="visible"></use>
		</clipPath>
		<rect x="-4.619" y="-11.4" clip-path="url(#SVGID_4_)" fill="none" stroke="#96989A" width="349" height="288"></rect>
	</g>
</g>
<path fill="#FDD83A" d="M131.754,244.465c-0.185-0.004-0.338,0.143-0.342,0.328c0,0.004,0,0.01,0,0.014v5.822h-7.535v-5.822  c0-0.342,0-0.342-0.342-0.342h-1.37c-0.185-0.004-0.338,0.143-0.342,0.328c0,0.004,0,0.01,0,0.014v13.699  c-0.004,0.186,0.143,0.339,0.328,0.342c0.004,0.001,0.009,0.001,0.014,0h1.37c0.185,0.005,0.338-0.143,0.342-0.326  c0-0.006,0-0.01,0-0.016v-5.822h7.535v5.822c0,0.342,0,0.342,0.342,0.342h1.37c0.185,0.005,0.338-0.143,0.342-0.326  c0-0.006,0-0.01,0-0.016v-13.699c0.004-0.186-0.143-0.338-0.328-0.342c-0.005,0-0.009,0-0.014,0H131.754z M160.867,244.465  c-0.185-0.004-0.338,0.143-0.342,0.328c0,0.004,0,0.01,0,0.014v1.027c0,0.342,0,0.342,0.342,0.342h3.425v11.988  c-0.004,0.186,0.143,0.339,0.328,0.342c0.005,0.001,0.009,0.001,0.014,0H166c0.186,0.004,0.338-0.143,0.342-0.327  c0-0.005,0-0.009,0-0.015v-11.986h3.425c0.186,0.004,0.339-0.143,0.343-0.328c0-0.005,0-0.01,0-0.016v-1.027  c0-0.342,0-0.342-0.343-0.342H160.867z M179.02,244.465c-0.185-0.005-0.338,0.142-0.343,0.326c0,0.006,0,0.01,0,0.016v13.699  c0,0.342,0,0.342,0.343,0.342h8.221c0.185,0.005,0.338-0.143,0.342-0.326c0-0.006,0-0.01,0-0.016v-1.026  c0-0.343,0-0.343-0.342-0.343h-6.508v-4.452h5.479c0.342,0,0.342,0,0.342-0.343v-1.027c0.004-0.186-0.143-0.338-0.327-0.342  c-0.005,0-0.01,0-0.015,0h-5.479v-4.801h6.508c0.185,0.004,0.338-0.143,0.342-0.327c0-0.005,0-0.011,0-0.015v-1.027  c0-0.342,0-0.342-0.342-0.342L179.02,244.465z M197.173,244.465c-0.185-0.004-0.338,0.143-0.342,0.328c0,0.004,0,0.01,0,0.014  v13.699c0,0.342,0,0.342,0.342,0.342h7.193c0.185,0.006,0.338-0.141,0.343-0.326c0-0.005,0-0.01,0-0.016v-1.026  c0-0.343,0-0.343-0.343-0.343h-5.48V245.15c0.004-0.185-0.143-0.338-0.327-0.343c-0.005,0.001-0.01,0.001-0.015,0h-1.37  L197.173,244.465z M142.715,251.659c0-2.74,2.4-5.48,5.138-5.48c2.988-0.039,5.441,2.352,5.48,5.339c0,0.047,0,0.094,0,0.142  c0,3.082-2.4,5.137-5.48,5.137C145.044,256.727,142.784,254.467,142.715,251.659 M140.66,251.659c0.023,3.963,3.23,7.17,7.193,7.192  c4.038,0.122,7.41-3.052,7.533-7.089c0.001-0.035,0.001-0.069,0.002-0.104c0.095-4.068-3.125-7.441-7.192-7.536  s-7.441,3.125-7.536,7.192C140.657,251.428,140.657,251.543,140.66,251.659 M120.795,200.967c-0.367,0.025-0.66,0.317-0.685,0.685  V227c0.025,0.367,0.318,0.66,0.685,0.685h14.043c0.368-0.024,0.66-0.317,0.685-0.685v-3.084c-0.025-0.367-0.317-0.659-0.685-0.685  H124.9v-21.58c-0.025-0.367-0.317-0.659-0.685-0.685H120.795z M145.795,200.967c-0.367,0.025-0.66,0.317-0.685,0.685V227  c0.025,0.367,0.318,0.66,0.685,0.685h15.755c0.368-0.024,0.66-0.317,0.685-0.685v-3.084c-0.025-0.367-0.317-0.659-0.685-0.685h-11.3  v-6.851h9.59c0.368-0.024,0.66-0.316,0.685-0.685v-3.083c-0.025-0.367-0.317-0.66-0.685-0.686h-9.59v-6.164h11.3  c0.368-0.025,0.66-0.318,0.685-0.686v-3.425c-0.025-0.367-0.317-0.659-0.685-0.685L145.795,200.967z M189.295,200.967  c-0.26,0.036-0.5,0.156-0.685,0.343l-9.934,10.96v-10.275c-0.032-0.553-0.474-0.995-1.027-1.027h-3.426  c-0.496-0.072-0.956,0.273-1.027,0.77c-0.013,0.086-0.013,0.172,0,0.258v25c0.032,0.555,0.474,0.996,1.027,1.028h3.426  c0.552-0.032,0.993-0.472,1.027-1.022v-11.648l9.934,12.33c0.185,0.186,0.425,0.307,0.685,0.343h4.11  c0.685,0,1.027-0.685,0.685-1.37l-10.618-13.015l9.934-11.3c0.342-0.686,0-1.37-0.686-1.37L189.295,200.967z M317.049,200.967  c-0.26,0.036-0.5,0.156-0.685,0.343l-9.59,10.96v-10.275c-0.033-0.553-0.475-0.995-1.028-1.027h-3.425  c-0.497-0.072-0.957,0.273-1.028,0.77c-0.013,0.086-0.013,0.172,0,0.258v25c0.032,0.555,0.475,0.996,1.028,1.028h3.425  c0.552-0.032,0.992-0.472,1.027-1.022v-11.648l9.933,12.33c0.185,0.186,0.425,0.307,0.685,0.343h4.11  c0.685,0,1.027-0.685,0.685-1.37l-10.617-13.015l9.933-11.3c0.343-0.686,0-1.37-0.685-1.37L317.049,200.967z M92.709,200.967  c-0.367,0.025-0.66,0.317-0.685,0.685v3.082c0.025,0.368,0.318,0.659,0.685,0.685h5.823V227c0.025,0.367,0.317,0.66,0.685,0.685  h3.425c0.367-0.024,0.66-0.317,0.685-0.685v-21.58h5.823c0.368-0.025,0.66-0.318,0.685-0.686v-3.082  c-0.025-0.367-0.317-0.66-0.685-0.686H92.709z M47.156,210.215L47.156,210.215l4.11,8.562h-7.878L47.156,210.215z M47.156,200.625  c-0.26,0.035-0.5,0.156-0.685,0.342L34.483,227c-0.343,0.342,0,1.027,0.685,1.027h3.425c0.685,0,1.028-0.342,1.028-0.686  l2.055-4.109h11.646l1.713,4.109c0.343,0.686,0.685,0.686,1.028,0.686h3.425c0.685,0,1.028-0.342,0.685-1.027l-11.988-26.03  c0-0.343-0.343-0.343-0.685-0.343L47.156,200.625z M4,214.325c0.063,7.631,6.301,13.766,13.932,13.701c0.037,0,0.074,0,0.111-0.001  c3.486,0.159,6.866-1.218,9.248-3.769c0.284-0.213,0.341-0.615,0.128-0.898c-0.036-0.049-0.079-0.092-0.128-0.128l-2.4-2.399  c-0.212-0.285-0.615-0.342-0.899-0.13c-0.049,0.036-0.093,0.08-0.129,0.13c-1.622,1.379-3.695,2.109-5.823,2.055  c-4.918-0.195-8.747-4.34-8.552-9.258c0.184-4.645,3.907-8.368,8.552-8.553c2.199-0.092,4.327,0.785,5.823,2.4  c0.212,0.283,0.614,0.342,0.898,0.129c0.049-0.037,0.093-0.08,0.129-0.129l2.4-2.4c0.284-0.213,0.341-0.615,0.128-0.898  c-0.036-0.049-0.079-0.092-0.128-0.129c-2.509-2.318-5.834-3.549-9.248-3.424C10.508,200.625,4,206.79,4,214.325 M67.021,207.817  c0,4.453,3.768,6.85,7.193,8.221c3.083,1.369,4.8,2.739,4.8,4.453c-0.038,1.746-1.485,3.131-3.231,3.092  c-0.065,0-0.129-0.004-0.194-0.01c-2.4,0-5.48-2.4-5.823-2.4c-0.345-0.314-0.881-0.291-1.197,0.055  c-0.077,0.083-0.135,0.182-0.173,0.287l-1.37,2.4c-0.343,0.686,0,0.686,0.343,1.027c2.38,2.043,5.427,3.14,8.563,3.083  c5.48,0,8.905-3.769,8.905-7.534c0-5.139-4.453-7.193-7.878-8.564c-3.083-1.369-4.453-2.399-4.453-4.453  c0-1.369,1.028-2.739,3.425-2.739c2.055,0,5.138,2.056,5.48,2.056c0.343,0.342,1.028,0,1.37-0.344l1.37-2.055  c0.343-0.342,0-1.028-0.342-1.37c-2.131-1.736-4.787-2.702-7.535-2.74c-6.85,0.343-9.248,4.11-9.248,7.535 M203.686,200.624  c-0.368,0.024-0.66,0.316-0.686,0.684v26.031c0.025,0.367,0.317,0.66,0.686,0.685h3.414c0.368-0.024,0.66-0.317,0.686-0.685V210.9  l0,0l16.1,17.81h1.028c0.367-0.025,0.66-0.316,0.685-0.685v-26.373c-0.024-0.367-0.317-0.659-0.685-0.685h-3.423  c-0.367,0.025-0.66,0.317-0.686,0.685v15.755l0,0l-16.1-17.125h-1.025L203.686,200.624z M239.649,214.323  c0-4.918,3.986-8.904,8.904-8.904s8.905,3.986,8.905,8.904s-3.987,8.905-8.905,8.905l0,0  C243.672,223.141,239.736,219.205,239.649,214.323 M234.848,214.323c-0.004,7.566,6.126,13.704,13.691,13.709  c7.566,0.004,13.704-6.125,13.709-13.691c0-0.006,0-0.012,0-0.018c0-7.535-6.165-14.043-13.7-14.043  C240.924,200.459,234.839,206.697,234.848,214.323 M269.442,214.323c0.063,7.631,6.301,13.766,13.932,13.701  c0.037,0,0.074,0,0.111-0.001c3.485,0.159,6.865-1.218,9.248-3.769c0.283-0.213,0.341-0.615,0.128-0.898  c-0.037-0.049-0.08-0.092-0.128-0.128l-2.4-2.399c-0.213-0.285-0.615-0.342-0.898-0.13c-0.05,0.036-0.093,0.08-0.13,0.13  c-1.621,1.379-3.695,2.109-5.822,2.055c-4.919-0.195-8.747-4.34-8.553-9.258c0.185-4.645,3.907-8.368,8.553-8.553  c2.198-0.092,4.327,0.785,5.822,2.4c0.213,0.283,0.615,0.342,0.898,0.129c0.05-0.037,0.093-0.08,0.13-0.129l2.4-2.4  c0.283-0.213,0.341-0.615,0.128-0.898c-0.037-0.049-0.08-0.092-0.128-0.129c-2.51-2.318-5.834-3.549-9.248-3.424  c-7.63-0.125-13.917,5.958-14.042,13.588c-0.001,0.037-0.001,0.074-0.001,0.111 M189.641,139.655  c0.568-3.373,1.729-6.619,3.426-9.59c6.85,0,14.043,2.4,17.81,7.878c5.138,7.192,4.453,18.153-4.453,22.263  c-1.582,0.852-3.342,1.321-5.138,1.371C192.037,161.577,188.27,148.217,189.641,139.655 M232.453,133.148  c-2.74,0-6.508-4.11-8.22-5.823c-2.195-1.8-4.152-3.871-5.823-6.165c3.768,1.37,7.878,3.083,10.96,5.48  C231.083,128.01,237.248,133.148,232.453,133.148L232.453,133.148 M237.253,74.58c1.658,6.949,2.121,14.13,1.37,21.235h-8.563  c-5.479,0-11.3,0-16.1,2.055c-9.248,3.768-4.453,14.043-0.342,20.208c-7.878-1.028-15.755,1.027-21.235,8.562  c-0.342,0.343-0.685,1.028-1.026,1.37c-2.554,0.371-5.073,0.943-7.535,1.713c-6.851,2.4-10.618,8.564-12.33,15.414  c-2.056,8.904-1.028,18.838-1.028,28.084c0,1.371,2.4,2.74,2.4,1.371c0-11.646-2.74-29.455,6.508-38.7  c2.834-2.702,6.413-4.491,10.275-5.138c-4.453,9.249-4.453,21.92,3.082,29.799c7.193,7.193,19.865,3.769,22.948-6.164  c2.74-9.248-3.083-19.523-11.3-23.975c-3.052-1.635-6.472-2.462-9.933-2.4c4.791-6.085,12.648-8.882,20.208-7.193  c2.719,3.631,5.819,6.961,9.248,9.933c2.399,2.055,6.164,5.48,9.247,5.48c2.4,0,3.426-1.713,2.74-3.768  c-1.027-4.11-6.165-7.193-9.59-9.248c-3.433-1.978-7.12-3.476-10.96-4.453c-0.342-0.342-0.342-0.685-0.685-1.027  c-2.4-3.425-5.139-7.878-4.8-11.988c0.685-5.138,5.822-5.823,10.274-6.508c5.805-0.57,11.637-0.799,17.468-0.686  c-0.728,6.987-2.578,13.811-5.479,20.208c0,0,2.399,0,2.74-0.685c2.7-6.23,4.544-12.798,5.479-19.523c2.4,0,5.138,0.343,7.535,0.343  c1.713,0,0-2.4-1.027-2.4c-2.055,0-4.109-0.342-6.165-0.342c0.751-7.333,0.288-14.738-1.37-21.92h-0.343  C238.966,73.553,236.911,74.238,237.253,74.58 M141,72.528c-9.077,1.131-15.518,9.406-14.387,18.483  c0,0.006,0.001,0.012,0.002,0.017c1.37,15.755,22.263,23.633,31.853,9.59c0.342-0.342-2.055-2.4-2.4-2.055  c-8.563,12.33-28.77,8.563-27.4-8.563c1.028-12.673,18.5-21.92,27.4-9.59c0.343,0.343,2.74,2.4,1.713,1.37  c-3.768-5.139-8.905-9.249-15.413-9.249H141 M80.719,72.875c0.942-2.42,2.783-4.384,5.138-5.48c-2.112,2.696-3.524,5.874-4.11,9.248  c-0.62,2.58-0.736,5.254-0.343,7.878C79.691,80.753,79.004,76.986,80.719,72.875 M84.829,88.976c-0.405-0.772-0.749-1.575-1.028-2.4  c-1.713-6.508-0.343-19.523,7.878-21.235c13.7-1.713,33.565,10.618,28.428,24.66c-2.74,5.138-8.22,7.535-14.385,7.535  c-7.193-0.343-15.755-3.768-20.893-8.563 M93.049,63.285h-0.685c-5.823,0-11.3,1.713-14.043,7.535  c-2.4,5.479-0.342,10.618,3.425,15.07c0.861,3.739,2.902,7.102,5.823,9.59c6.165,6.165,14.728,8.905,23.29,10.275  c3.425,0.343,6.508,0.685,9.933,1.028c0.685,0,1.37,0.342,2.055,0.342c-4.11,0.685-8.22,2.4-11.645,3.425  c-5.823,2.055-11.988,4.8-16.1,9.59c-9.933,10.275-1.37,25.345,11.645,27.058c11.3,1.713,23.633-3.083,33.565-8.904  c-8.22,8.219-20.893,11.987-31.853,13.014c-1.028,0-2.055,2.056-0.343,1.714c13.358-1.37,28.77-6.509,36.99-17.81  c0.685-1.029-0.343-1.371-1.37-1.029c-13.358,9.248-40.415,20.895-49.663,2.4c-8.563-17.468,18.838-25.345,31.168-27.4  c0.685,0,1.028-0.685,1.37-1.028c0.685-2.055-3.425-2.055-4.453-2.4c-6.508-0.685-13.015-1.028-19.18-3.083  C96.813,100.617,89.626,96.5,86.2,90.681c1.629,1.367,3.345,2.625,5.138,3.768c8.905,5.48,25.345,8.905,31.51-2.4  c3.768-9.59-4.8-18.5-12.33-23.29c-4.924-2.875-10.421-4.629-16.1-5.138c-0.685,0-1.028-0.343-1.37-0.343l0,0 M161.891,62.935  v58.568c-2.066,4.186-4.472,8.195-7.193,11.988c-0.342-1.027-0.342-2.055-0.685-3.083c-2.74-9.248-8.905-16.783-18.838-17.468  c-8.562-0.685-19.865,3.425-18.153,14.043c1.37,9.934,11.988,11.988,19.523,7.535c1.37-0.686-0.685-1.713-1.713-1.027  c-13.015,7.534-22.263-11.301-9.59-17.126c13.358-6.165,23.975,4.8,26.715,16.783c0.342,1.028,0.342,2.056,0.685,3.083  c-3.153,3.899-6.587,7.562-10.275,10.96c-6.508,5.823-15.755,11.646-25,12.33c-1.37,0-0.343,2.399,0.685,2.399  c6.165-0.342,11.988-3.082,17.125-6.164c6.868-4.236,12.904-9.693,17.81-16.101c1.37,10.96,0.342,22.604,0.342,33.565  c0,1.027,2.4,1.027,2.4,0c0-11.645,1.37-24.318-0.685-36.305c2.4-3.426,4.453-6.851,6.508-10.276v46.923  c0,0.685,3.083,1.026,3.083,0.342v-52.742c0.648-1.219,1.221-2.478,1.713-3.768c1.37-3.425,2.74-6.85,3.769-10.275  c1.37,6.508,5.479,12.673,11.645,14.728c9.59,2.74,19.523-4.8,21.235-14.043c1.028-6.508-2.055-13.015-8.905-14.728  c-8.562-2.4-13.357,4.8-13.015,12.673c0,1.028,1.713,2.74,1.713,1.37c-0.343-17.125,22.948-13.358,17.81,2.055  c-2.055,5.48-8.22,10.275-15.069,10.618c-8.563,0-14.043-8.563-14.043-16.44c3.361-11.33,5.88-22.892,7.535-34.593  c0-1.028-2.056-2.74-2.4-1.028c-2.4,15.755-5.823,32.538-12.33,47.951v-52.4c0-0.343-1.027-0.686-1.713-0.686  c-0.26,0.037-0.5,0.157-0.685,0.343 M232.107,51.642c1.369,2.74,3.083,6.851,1.369,6.851l0,0  C232.448,58.492,232.107,55.067,232.107,51.642 M194.09,40.675c0.686-0.685,4.11-4.453,4.8-3.083  c1.028,1.713-4.109,6.165-5.138,6.85c-1.169,1.234-2.429,2.379-3.768,3.425c1.107-2.539,2.485-4.95,4.109-7.193 M163.954,29.374  c0.574-2.629,1.746-5.09,3.425-7.193c0.343-0.685,1.028-1.028,1.37-1.713c-0.364,1.885-0.938,3.724-1.713,5.48  c-0.599,1.271-1.41,2.429-2.4,3.425c-0.177,0.374-0.407,0.721-0.685,1.028v-1.028 M148.194,4.028  c-8.563,1.713-16.44,6.165-23.633,11.3c-15.413,10.96-26.715,25.345-32.88,43.155c0,0,2.055,0.342,2.4-0.343  c4.545-13.496,12.58-25.549,23.29-34.935c6.165-5.48,14.043-11.645,22.263-15.413c-8.905,4.453-15.755,12.673-20.893,20.893  c-5.138,8.22-10.618,19.865-8.22,29.8c2.055,8.22,9.933,11.3,17.81,11.3c12.673,0,22.263-8.22,30.483-16.783L166,45.813  c-0.99,1.517-1.357,3.357-1.028,5.138c0.686,4.8,6.165,6.508,10.275,6.165c3.66-0.25,7.196-1.428,10.275-3.425  c-0.686,4.11,0,7.193,3.768,7.535c4.8,0.342,9.248-2.4,13.7-3.425c6.508-1.37,10.618,1.713,13.357,6.508  c-1.656-1.143-3.517-1.958-5.479-2.4c-6.951-1.723-14.206,1.347-17.811,7.535c-8.904,15.413,10.275,28.77,23.976,23.633  C225.943,90,230.395,80.406,230.052,71.5c-0.342-8.22-4.8-15.413-10.618-21.235c-2.801-2.915-5.774-5.66-8.904-8.22  c-2.056-1.713-5.48-4.453-6.165-7.193c-0.686-3.083,2.399-5.138,5.138-5.138c4.453,0,9.248,4.8,11.988,7.878  c2.914,3.072,5.551,6.396,7.878,9.933V48.9c0,3.083-0.686,7.193,1.028,9.933c1.713,2.74,5.822,2.74,5.822-1.028  c0.344-3.425-2.055-7.535-4.8-11.3v-2.74c-1.028-5.823-3.083-11.3-7.193-15.755c-0.685-0.685-3.083-0.685-1.713,0.685  c3.485,3.914,5.644,8.829,6.165,14.043c-0.685-0.685-1.027-1.37-1.713-2.055c-4.109-5.138-9.59-10.96-15.755-13.015  c-3.425-1.028-9.59-0.343-9.933,4.453c-0.344,4.796,6.508,8.905,9.248,11.645c6.508,5.823,13.699,12.33,16.1,21.578  c2.74,10.618-2.4,23.633-13.7,26.373c-12.33,2.74-25-9.248-17.81-21.578c2.615-4.176,7.069-6.852,11.984-7.201  c5.48-0.343,9.248,2.74,11.646,7.193c0.62,2.132,1.078,4.308,1.37,6.508c0.185,0.187,0.425,0.307,0.685,0.343  c0.686,0.685,2.056,0.685,2.056,0v-0.343c0.342,0,0.342,0,0.342-0.342c-1.37-8.563-4.453-18.838-14.729-19.523  c-2.739-0.343-5.479,0.343-8.22,1.028c-2.4,0.685-7.193,3.425-9.59,2.74c-3.083-0.685-2.055-6.165-1.028-9.248  c0.686-0.685,1.37-1.028,2.055-1.713c2.4-2.055,4.801-4.11,7.193-6.508c0.686-1.028,3.425-3.083,3.425-4.453  c0-2.4-4.109-1.713-5.822-1.028c-3.426,1.37-8.563,8.22-10.275,14.385c-1.405,1.036-2.895,1.953-4.453,2.74  c-3.768,2.055-8.562,2.74-11.645-0.342c-1.632-1.605-2.169-4.02-1.37-6.165c2.74-10.275,16.783-14.043,25.688-12.673  c0.342,0,0.686,0.343,1.027,0.343c1.027,0.343,3.768-0.343,1.713-1.028c-16.44-6.508-28.085,4.453-39.045,15.755  c-6.508,6.85-13.7,14.385-23.29,17.125c-9.248,2.74-19.523,0-21.235-10.275c-2.4-16.783,11.988-36.648,24.66-45.9  c7.193-5.479,21.578-11.3,28.428-2.74c1.764,2.379,2.724,5.259,2.74,8.22c-4.453,3.425-10.275,8.905-8.563,13.015  c1.713,4.8,8.22-0.685,9.59-3.083c1.516-2.974,2.336-6.253,2.399-9.59c8.905-6.165,20.551-5.138,30.825,0  c0.686,0.343,4.11,0,2.4-0.685c-10.276-5.131-22.262-7.529-32.876-2.049c-0.342,0-0.342,0.343-0.686,0.343  c-0.322-2.978-1.651-5.757-3.768-7.878c-2.055-2.055-4.8-3.083-7.878-3.768h-0.685c-1.351-0.283-2.732-0.398-4.112-0.342  C153.411,2.982,150.761,3.328,148.194,4.028"></path>
</svg>
